<?xml version="1.0" encoding="UTF-8" standalone="no"?>
<!-- Created with Inkscape (http://www.inkscape.org/) -->

<svg
   xmlns:dc="http://purl.org/dc/elements/1.1/"
   xmlns:cc="http://creativecommons.org/ns#"
   xmlns:rdf="http://www.w3.org/1999/02/22-rdf-syntax-ns#"
   xmlns:svg="http://www.w3.org/2000/svg"
   xmlns="http://www.w3.org/2000/svg"
   xmlns:sodipodi="http://sodipodi.sourceforge.net/DTD/sodipodi-0.dtd"
   xmlns:inkscape="http://www.inkscape.org/namespaces/inkscape"
   version="1.1"
   id="svg2892"
   xml:space="preserve"
   width="800"
   height="800"
   viewBox="0 0 800 800"
   sodipodi:docname="logo-design-element-#4.svg"
   inkscape:version="0.92.4 (5da689c313, 2019-01-14)"><metadata
     id="metadata2898"><rdf:RDF><cc:Work
         rdf:about=""><dc:format>image/svg+xml</dc:format><dc:type
           rdf:resource="http://purl.org/dc/dcmitype/StillImage" /><dc:title></dc:title></cc:Work></rdf:RDF></metadata><defs
     id="defs2896"><clipPath
       clipPathUnits="userSpaceOnUse"
       id="clipPath2908"><path
         d="M 0,600 H 600 V 0 H 0 Z"
         id="path2906"
         inkscape:connector-curvature="0" /></clipPath><linearGradient
       x1="0"
       y1="0"
       x2="1"
       y2="0"
       gradientUnits="userSpaceOnUse"
       gradientTransform="matrix(290.73172,-581.76813,-581.76813,-290.73172,183.26367,576.48828)"
       spreadMethod="pad"
       id="linearGradient2926"><stop
         style="stop-opacity:1;stop-color:#ec008c"
         offset="0"
         id="stop2922" /><stop
         style="stop-opacity:1;stop-color:#8d198f"
         offset="1"
         id="stop2924" /></linearGradient><linearGradient
       x1="0"
       y1="0"
       x2="1"
       y2="0"
       gradientUnits="userSpaceOnUse"
       gradientTransform="matrix(-134.4296,-402.8873,-402.8873,134.4296,351.47949,586.59912)"
       spreadMethod="pad"
       id="linearGradient2946"><stop
         style="stop-opacity:1;stop-color:#ec008c"
         offset="0"
         id="stop2942" /><stop
         style="stop-opacity:1;stop-color:#8d198f"
         offset="1"
         id="stop2944" /></linearGradient><linearGradient
       x1="0"
       y1="0"
       x2="1"
       y2="0"
       gradientUnits="userSpaceOnUse"
       gradientTransform="matrix(-216.67804,-108.28229,-108.28229,216.67804,442.2168,502.84082)"
       spreadMethod="pad"
       id="linearGradient2966"><stop
         style="stop-opacity:1;stop-color:#ec008c"
         offset="0"
         id="stop2962" /><stop
         style="stop-opacity:1;stop-color:#8d198f"
         offset="1"
         id="stop2964" /></linearGradient><linearGradient
       x1="0"
       y1="0"
       x2="1"
       y2="0"
       gradientUnits="userSpaceOnUse"
       gradientTransform="matrix(-220.01697,73.412079,73.412079,220.01697,489.7207,404.73437)"
       spreadMethod="pad"
       id="linearGradient2986"><stop
         style="stop-opacity:1;stop-color:#ec008c"
         offset="0"
         id="stop2982" /><stop
         style="stop-opacity:1;stop-color:#8d198f"
         offset="1"
         id="stop2984" /></linearGradient><linearGradient
       x1="0"
       y1="0"
       x2="1"
       y2="0"
       gradientUnits="userSpaceOnUse"
       gradientTransform="matrix(-149.26323,298.68289,298.68289,149.26323,484.64355,285.44922)"
       spreadMethod="pad"
       id="linearGradient3006"><stop
         style="stop-opacity:1;stop-color:#ec008c"
         offset="0"
         id="stop3002" /><stop
         style="stop-opacity:1;stop-color:#8d198f"
         offset="1"
         id="stop3004" /></linearGradient><linearGradient
       x1="0"
       y1="0"
       x2="1"
       y2="0"
       gradientUnits="userSpaceOnUse"
       gradientTransform="matrix(146.33386,438.56454,438.56454,-146.33386,393.57812,187.7998)"
       spreadMethod="pad"
       id="linearGradient3026"><stop
         style="stop-opacity:1;stop-color:#ec008c"
         offset="0"
         id="stop3022" /><stop
         style="stop-opacity:1;stop-color:#8d198f"
         offset="1"
         id="stop3024" /></linearGradient><linearGradient
       x1="0"
       y1="0"
       x2="1"
       y2="0"
       gradientUnits="userSpaceOnUse"
       gradientTransform="matrix(503.78604,251.76109,251.76109,-503.78604,236.22607,190.97168)"
       spreadMethod="pad"
       id="linearGradient3046"><stop
         style="stop-opacity:1;stop-color:#ec008c"
         offset="0"
         id="stop3042" /><stop
         style="stop-opacity:1;stop-color:#8d198f"
         offset="1"
         id="stop3044" /></linearGradient><linearGradient
       x1="0"
       y1="0"
       x2="1"
       y2="0"
       gradientUnits="userSpaceOnUse"
       gradientTransform="matrix(636.1535,-212.26248,-212.26248,-636.1535,103.75781,365.37012)"
       spreadMethod="pad"
       id="linearGradient3066"><stop
         style="stop-opacity:1;stop-color:#ec008c"
         offset="0"
         id="stop3062" /><stop
         style="stop-opacity:1;stop-color:#8d198f"
         offset="1"
         id="stop3064" /></linearGradient></defs><sodipodi:namedview
     pagecolor="#ffffff"
     bordercolor="#666666"
     borderopacity="1"
     objecttolerance="10"
     gridtolerance="10"
     guidetolerance="10"
     inkscape:pageopacity="0"
     inkscape:pageshadow="2"
     inkscape:window-width="1920"
     inkscape:window-height="1018"
     id="namedview2894"
     showgrid="false"
     inkscape:zoom="0.84328283"
     inkscape:cx="483.05085"
     inkscape:cy="344.0678"
     inkscape:window-x="-8"
     inkscape:window-y="-8"
     inkscape:window-maximized="1"
     inkscape:current-layer="g2900" /><g
     id="g2900"
     inkscape:groupmode="layer"
     inkscape:label="logotype-element-4-publicdomainvectors.org"
     transform="matrix(1.3333333,0,0,-1.3333333,0,800)"><g
       id="g2902"><g
         id="g2904"
         clip-path="url(#clipPath2908)"><g
           id="g2910"><g
             id="g2912"><g
               id="g2918"><g
                 id="g2920"><path
                   d="m 277.335,446.778 c -17.374,0.922 -33.469,-2.643 -49.491,-3.968 -17.177,-1.42 -34.033,-0.232 -51.829,11.71 -47.758,32.159 -45.627,67.151 -18.072,83.986 12.601,7.676 30.041,11.057 49.233,9.113 17.801,-1.818 37.021,-8.204 55.702,-19.994 33.842,-21.373 54.073,-50.746 66.228,-74.665 11.885,-23.409 16.78,-43.022 16.78,-43.022 0,0 -32.676,34.896 -68.551,36.84"
                   style="fill:url(#linearGradient2926);stroke:none"
                   id="path2928"
                   inkscape:connector-curvature="0" /></g></g></g></g><g
           id="g2930"><g
             id="g2932"><g
               id="g2938"><g
                 id="g2940"><path
                   d="m 336.396,494.167 c -21.088,22.397 -47.724,33.749 -53.877,59.213 -7.373,30.786 10.163,38.076 31.167,30.334 19.025,-7.051 40.971,-26.495 52.85,-53.126 23.045,-51.818 -2.749,-100.709 -2.749,-100.709 0,0 -4.664,40.107 -27.391,64.288"
                   style="fill:url(#linearGradient2946);stroke:none"
                   id="path2948"
                   inkscape:connector-curvature="0" /></g></g></g></g><g
           id="g2950"><g
             id="g2952"><g
               id="g2958"><g
                 id="g2960"><path
                   d="m 399.762,475.11 c -4.483,21.988 -16.992,41.49 -9.851,53.146 15.617,25.247 52.494,-22.883 48.242,-57.986 -2.358,-19.256 -13.397,-29.977 -24.784,-36.219 -12.484,-6.834 -25.028,-8.099 -25.028,-8.099 0,0 16.722,22.984 11.421,49.158"
                   style="fill:url(#linearGradient2966);stroke:none"
                   id="path2968"
                   inkscape:connector-curvature="0" /></g></g></g></g><g
           id="g2970"><g
             id="g2972"><g
               id="g2978"><g
                 id="g2980"><path
                   d="m 439.973,420.742 c 6.287,14.384 4.747,32.488 15.368,32.672 22.768,0.289 35.368,-51.119 16.231,-67.307 -11.139,-9.37 -26.498,-5.862 -39.843,0.614 -14.401,6.997 -25.669,17.058 -25.669,17.058 0,0 25.872,-1.348 33.913,16.963"
                   style="fill:url(#linearGradient2986);stroke:none"
                   id="path2988"
                   inkscape:connector-curvature="0" /></g></g></g></g><g
           id="g2990"><g
             id="g2992"><g
               id="g2998"><g
                 id="g3000"><path
                   d="m 449.422,353.513 c 13.263,3.368 20.458,16.393 30.8,6.52 23.14,-22.196 12.438,-75.166 -17.076,-65.929 -35.693,11.319 -53.883,80.906 -53.883,80.906 0,0 22.861,-25.838 40.159,-21.497"
                   style="fill:url(#linearGradient3006);stroke:none"
                   id="path3008"
                   inkscape:connector-curvature="0" /></g></g></g></g><g
           id="g3010"><g
             id="g3012"><g
               id="g3018"><g
                 id="g3020"><path
                   d="m 421.173,293.407 c 15.848,-13.147 31.144,-10.785 36.833,-32.352 7.007,-26.694 -0.122,-49.052 -12.829,-59.776 -14.019,-11.798 -34.985,-9.623 -48.927,18.856 -14.236,29.156 -13.972,64.943 -10.338,91.519 3.419,24.923 9.766,41.573 9.766,41.573 0,0 5.602,-43.26 25.495,-59.82"
                   style="fill:url(#linearGradient3026);stroke:none"
                   id="path3028"
                   inkscape:connector-curvature="0" /></g></g></g></g><g
           id="g3030"><g
             id="g3032"><g
               id="g3038"><g
                 id="g3040"><path
                   d="m 352.682,276.423 c 5.661,-33.289 23.336,-52.549 12.599,-84.623 -14.825,-44.067 -43.48,-60.873 -67.791,-52.154 -26.469,9.559 -44.317,48.011 -28.928,100.541 7.038,23.973 18.328,43.638 30.671,59.186 11.485,14.458 23.847,25.318 34.823,33.213 20.018,14.383 36.278,19.455 36.278,19.455 0,0 -24.038,-37.829 -17.652,-75.618"
                   style="fill:url(#linearGradient3046);stroke:none"
                   id="path3048"
                   inkscape:connector-curvature="0" /></g></g></g></g><g
           id="g3050"><g
             id="g3052"><g
               id="g3058"><g
                 id="g3060"><path
                   d="m 280.679,342.444 c -22.968,-32.081 -25.915,-70.908 -65.531,-87.044 -27.84,-11.291 -51.934,-11.645 -70.08,-3.849 -19.067,8.224 -30.325,24.909 -32.599,45.259 -2.22,20.08 4.446,42.497 19.59,62.274 14.146,18.467 35.038,33.776 61.559,42.469 23.908,7.829 46.314,9.229 66.004,7.352 18.207,-1.743 34.478,-6.322 47.826,-11.443 24.666,-9.472 40.84,-21.436 40.84,-21.436 0,0 -10.222,-0.278 -23.364,-4.142 -14.119,-4.159 -32.196,-12.646 -44.245,-29.44"
                   style="fill:url(#linearGradient3066);stroke:none"
                   id="path3068"
                   inkscape:connector-curvature="0" /></g></g></g></g></g></g></g></svg>